<svg xmlns="http://www.w3.org/2000/svg" viewBox="0 0 16 16" shape-rendering="crispEdges">
  <rect width="16" height="16" fill="#1a1a2e"/>
  <!-- Row 1 -->
  <rect x="4" y="3" width="1" height="1" fill="#10b981"/>
  <rect x="11" y="3" width="1" height="1" fill="#10b981"/>
  <!-- Row 2 -->
  <rect x="5" y="4" width="1" height="1" fill="#10b981"/>
  <rect x="10" y="4" width="1" height="1" fill="#10b981"/>
  <!-- Row 3 -->
  <rect x="4" y="5" width="8" height="1" fill="#10b981"/>
  <!-- Row 4 -->
  <rect x="3" y="6" width="2" height="1" fill="#10b981"/>
  <rect x="6" y="6" width="4" height="1" fill="#10b981"/>
  <rect x="11" y="6" width="2" height="1" fill="#10b981"/>
  <!-- Row 5 -->
  <rect x="2" y="7" width="12" height="1" fill="#10b981"/>
  <!-- Row 6 -->
  <rect x="2" y="8" width="1" height="1" fill="#10b981"/>
  <rect x="4" y="8" width="8" height="1" fill="#10b981"/>
  <rect x="13" y="8" width="1" height="1" fill="#10b981"/>
  <!-- Row 7 -->
  <rect x="2" y="9" width="1" height="1" fill="#10b981"/>
  <rect x="4" y="9" width="1" height="1" fill="#10b981"/>
  <rect x="11" y="9" width="1" height="1" fill="#10b981"/>
  <rect x="13" y="9" width="1" height="1" fill="#10b981"/>
  <!-- Row 8 -->
  <rect x="5" y="10" width="2" height="1" fill="#10b981"/>
  <rect x="9" y="10" width="2" height="1" fill="#10b981"/>
</svg>
